<svg width="156" height="34" viewBox="0 0 156 34" fill="none" xmlns="http://www.w3.org/2000/svg">
<path d="M9.31992 15.8087C9.8971 13.6354 12.1109 11.4014 14.2646 10.8189L27.6919 7.18775C29.8456 6.60531 31.1237 7.89501 30.5465 10.0684L26.9481 23.6181C26.3709 25.7914 24.1571 28.0254 22.0034 28.6079L8.57615 32.239C6.42243 32.8215 5.14438 31.5318 5.72156 29.3584L9.31992 15.8087Z" fill="#9E77ED"/>
<path d="M3.93705 10.3766C4.51422 8.20327 6.72805 5.96926 8.88177 5.38683L22.309 1.75565C24.4628 1.17321 25.7408 2.46291 25.1636 4.63626L21.5653 18.186C20.9881 20.3593 18.7743 22.5933 16.6205 23.1758L3.19327 26.8069C1.03955 27.3894 -0.238489 26.0997 0.338686 23.9263L3.93705 10.3766Z" fill="#6941C6"/>
<path d="M43.0229 22.2587H47.6416V24.0833H40.7823V10.2992H43.0229V22.2587Z" fill="#101828"/>
<path d="M48.7685 18.5697C48.7685 17.4722 48.9912 16.5004 49.4367 15.6542C49.8953 14.8079 50.5111 14.1534 51.2842 13.6907C52.0704 13.2147 52.9351 12.9767 53.8785 12.9767C54.7302 12.9767 55.4705 13.1486 56.0994 13.4923C56.7415 13.8229 57.2525 14.2394 57.6325 14.7418V13.1552H59.8927V24.0833H57.6325V22.457C57.2525 22.9727 56.7349 23.4024 56.0798 23.7462C55.4247 24.0899 54.6778 24.2618 53.8392 24.2618C52.9089 24.2618 52.0572 24.0238 51.2842 23.5478C50.5111 23.0586 49.8953 22.3843 49.4367 21.5248C48.9912 20.6522 48.7685 19.6671 48.7685 18.5697ZM57.6325 18.6093C57.6325 17.8557 57.4752 17.2012 57.1608 16.6458C56.8594 16.0905 56.4598 15.6674 55.9619 15.3765C55.464 15.0856 54.9267 14.9402 54.3502 14.9402C53.7737 14.9402 53.2365 15.0856 52.7386 15.3765C52.2407 15.6542 51.8345 16.0707 51.52 16.626C51.2187 17.1681 51.068 17.816 51.068 18.5697C51.068 19.3233 51.2187 19.9844 51.52 20.553C51.8345 21.1216 52.2407 21.5579 52.7386 21.862C53.2496 22.1529 53.7868 22.2983 54.3502 22.2983C54.9267 22.2983 55.464 22.1529 55.9619 21.862C56.4598 21.5711 56.8594 21.148 57.1608 20.5927C57.4752 20.0241 57.6325 19.363 57.6325 18.6093Z" fill="#101828"/>
<path d="M72.584 13.1552L65.9409 29.2202H63.6217L65.823 23.9048L61.5581 13.1552H64.0541L67.1005 21.4852L70.2648 13.1552H72.584Z" fill="#101828"/>
<path d="M84.2002 18.3515C84.2002 18.7614 84.174 19.1316 84.1216 19.4622H75.8472C75.9127 20.3348 76.2338 21.0356 76.8103 21.5645C77.3868 22.0934 78.0943 22.3578 78.9329 22.3578C80.1384 22.3578 80.99 21.8488 81.4879 20.8307H83.9054C83.5778 21.8356 82.9817 22.6619 82.1169 23.3098C81.2652 23.9445 80.2039 24.2618 78.9329 24.2618C77.8978 24.2618 76.9675 24.0304 76.142 23.5677C75.3297 23.0917 74.6876 22.4306 74.2159 21.5843C73.7573 20.7249 73.528 19.7332 73.528 18.6093C73.528 17.4854 73.7508 16.5004 74.1963 15.6542C74.6549 14.7947 75.2904 14.1336 76.1027 13.6708C76.9282 13.2081 77.8716 12.9767 78.9329 12.9767C79.9549 12.9767 80.8656 13.2014 81.6648 13.651C82.4641 14.1006 83.0865 14.7352 83.532 15.555C83.9775 16.3616 84.2002 17.2937 84.2002 18.3515ZM81.8614 17.6375C81.8483 16.8045 81.5535 16.1368 80.9769 15.6343C80.4004 15.1319 79.6863 14.8807 78.8346 14.8807C78.0616 14.8807 77.3999 15.1319 76.8496 15.6343C76.2993 16.1236 75.9717 16.7913 75.8669 17.6375H81.8614Z" fill="#101828"/>
<path d="M88.6457 14.7418C88.9733 14.1865 89.4057 13.7568 89.9429 13.4527C90.4932 13.1353 91.1418 12.9767 91.8887 12.9767V15.317H91.3187C90.4408 15.317 89.7726 15.5418 89.314 15.9913C88.8685 16.4409 88.6457 17.221 88.6457 18.3317V24.0833H86.4052V13.1552H88.6457V14.7418Z" fill="#101828"/>
<path d="M97.879 24.2618C97.0273 24.2618 96.2608 24.1098 95.5795 23.8057C94.9113 23.4883 94.3806 23.0652 93.9875 22.5363C93.5944 21.9942 93.3848 21.3926 93.3586 20.7315H95.6778C95.7171 21.1943 95.9333 21.5843 96.3263 21.9017C96.7325 22.2058 97.237 22.3578 97.8397 22.3578C98.4686 22.3578 98.9534 22.2388 99.2941 22.0008C99.6479 21.7496 99.8248 21.4323 99.8248 21.0488C99.8248 20.6389 99.6282 20.3348 99.2352 20.1365C98.8552 19.9382 98.2459 19.72 97.4073 19.482C96.5949 19.2572 95.9333 19.0391 95.4223 18.8275C94.9112 18.6159 94.4658 18.292 94.0858 17.8557C93.7189 17.4193 93.5355 16.8442 93.5355 16.1302C93.5355 15.5484 93.7058 15.0195 94.0465 14.5435C94.3871 14.0543 94.8719 13.6708 95.5009 13.3932C96.1429 13.1155 96.8767 12.9767 97.7021 12.9767C98.9338 12.9767 99.923 13.294 100.67 13.9287C101.43 14.5501 101.836 15.4029 101.888 16.4872H99.6479C99.6086 15.9979 99.412 15.6079 99.0583 15.317C98.7045 15.0261 98.2262 14.8807 97.6235 14.8807C97.0339 14.8807 96.5818 14.9931 96.2674 15.2178C95.9529 15.4426 95.7957 15.7401 95.7957 16.1103C95.7957 16.4012 95.9005 16.6458 96.1101 16.8442C96.3198 17.0425 96.5753 17.2012 96.8767 17.3202C97.178 17.4259 97.6235 17.5648 98.2131 17.7367C98.9993 17.9482 99.6413 18.1664 100.139 18.3912C100.65 18.6027 101.089 18.9201 101.456 19.3432C101.823 19.7663 102.013 20.3282 102.026 21.029C102.026 21.6504 101.856 22.2058 101.515 22.695C101.174 23.1842 100.69 23.5677 100.061 23.8453C99.4448 24.123 98.7176 24.2618 97.879 24.2618Z" fill="#101828"/>
</svg>
