<svg width="156" height="34" viewBox="0 0 156 34" fill="none" xmlns="http://www.w3.org/2000/svg">
<path d="M15.9425 1.41667C7.41382 1.41667 0.5 8.39357 0.5 17C0.5 25.6064 7.41382 32.5833 15.9425 32.5833C23.5943 32.5833 29.9462 26.9674 31.1715 19.5972H31.0607C29.9178 24.078 25.8871 27.3889 21.09 27.3889C15.4043 27.3889 10.795 22.7376 10.795 17C10.795 11.2624 15.4043 6.61112 21.09 6.61112C25.8871 6.61112 29.9178 9.92198 31.0607 14.4028H31.1715C29.9462 7.03261 23.5943 1.41667 15.9425 1.41667Z" fill="#A4BCFD"/>
<path d="M0.5 17C0.5 8.39357 7.41385 1.41667 15.9425 1.41667C23.5943 1.41667 29.9462 7.03261 31.1715 14.4028H20.7657C19.6228 9.92198 15.5921 6.61112 10.795 6.61112C5.10923 6.61112 0.5 11.2624 0.5 17Z" fill="#3538CD"/>
<path d="M0.5 17C0.5 25.6064 7.41385 32.5833 15.9425 32.5833C23.5943 32.5833 29.9462 26.9674 31.1715 19.5972H20.7657C19.6228 24.078 15.5921 27.3889 10.795 27.3889C5.10923 27.3889 0.5 22.7376 0.5 17Z" fill="#3538CD"/>
<path d="M53.453 14.5259C53.0133 11.3213 50.5705 9.46188 47.4018 9.46188C43.6678 9.46188 40.8551 12.2087 40.8551 16.8712C40.8551 21.5267 43.6329 24.2805 47.4018 24.2805C50.8008 24.2805 53.0552 22.062 53.453 19.3081L50.8427 19.294C50.5146 20.9844 49.1467 21.9352 47.4367 21.9352C45.1195 21.9352 43.4584 20.1815 43.4584 16.8712C43.4584 13.6173 45.1056 11.8072 47.4437 11.8072C49.1816 11.8072 50.5426 12.8003 50.8427 14.5259H53.453Z" fill="#101828"/>
<path d="M58.7975 24.3017C60.4795 24.3017 61.4846 23.5058 61.9452 22.5972H62.029V24.0833H64.4578V16.843C64.4578 13.9835 62.1476 13.1243 60.1027 13.1243C57.8483 13.1243 56.1174 14.1385 55.559 16.1106L57.9181 16.4486C58.1694 15.7091 58.8813 15.0752 60.1166 15.0752C61.2892 15.0752 61.9313 15.6809 61.9313 16.7444V16.7867C61.9313 17.5192 61.1705 17.5544 59.2791 17.7586C57.1992 17.984 55.2101 18.6109 55.2101 21.0478C55.2101 23.1748 56.7525 24.3017 58.7975 24.3017ZM59.4536 22.4282C58.3997 22.4282 57.6459 21.9422 57.6459 21.0055C57.6459 20.0265 58.4904 19.618 59.6211 19.456C60.2841 19.3645 61.6102 19.1954 61.9382 18.9278V20.2026C61.9382 21.407 60.9751 22.4282 59.4536 22.4282Z" fill="#101828"/>
<path d="M72.3516 13.2652H70.2368V10.6733H67.7102V13.2652H66.1887V15.2372H67.7102V21.252C67.6963 23.2875 69.162 24.2876 71.0604 24.2312C71.7793 24.2101 72.2748 24.0692 72.547 23.9777L72.1213 21.9845C71.9817 22.0197 71.6955 22.0831 71.3814 22.0831C70.7463 22.0831 70.2368 21.8577 70.2368 20.8294V15.2372H72.3516V13.2652Z" fill="#101828"/>
<path d="M77.5495 24.3017C79.2316 24.3017 80.2366 23.5058 80.6972 22.5972H80.781V24.0833H83.2098V16.843C83.2098 13.9835 80.8996 13.1243 78.8547 13.1243C76.6003 13.1243 74.8694 14.1385 74.3111 16.1106L76.6701 16.4486C76.9214 15.7091 77.6333 15.0752 78.8686 15.0752C80.0412 15.0752 80.6833 15.6809 80.6833 16.7444V16.7867C80.6833 17.5192 79.9225 17.5544 78.0311 17.7586C75.9512 17.984 73.9621 18.6109 73.9621 21.0478C73.9621 23.1748 75.5045 24.3017 77.5495 24.3017ZM78.2056 22.4282C77.1517 22.4282 76.3979 21.9422 76.3979 21.0055C76.3979 20.0265 77.2424 19.618 78.3731 19.456C79.0361 19.3645 80.3622 19.1954 80.6903 18.9278V20.2026C80.6903 21.407 79.7271 22.4282 78.2056 22.4282Z" fill="#101828"/>
<path d="M88.2769 9.65909H85.7504V24.0833H88.2769V9.65909Z" fill="#101828"/>
<path d="M95.5512 24.2946C98.692 24.2946 100.688 22.062 100.688 18.7165C100.688 15.364 98.692 13.1243 95.5512 13.1243C92.4105 13.1243 90.4144 15.364 90.4144 18.7165C90.4144 22.062 92.4105 24.2946 95.5512 24.2946ZM95.5652 22.2521C93.8273 22.2521 92.9758 20.6886 92.9758 18.7095C92.9758 16.7304 93.8273 15.1457 95.5652 15.1457C97.2752 15.1457 98.1267 16.7304 98.1267 18.7095C98.1267 20.6886 97.2752 22.2521 95.5652 22.2521Z" fill="#101828"/>
<path d="M107.495 28.3655C110.391 28.3655 112.527 27.0273 112.527 24.2594V13.2652H110.035V15.0541H109.896C109.512 14.2723 108.709 13.1243 106.818 13.1243C104.34 13.1243 102.393 15.0823 102.393 18.639C102.393 22.1676 104.34 23.9284 106.811 23.9284C108.646 23.9284 109.505 22.9353 109.896 22.1394H110.021V24.189C110.021 25.7807 108.974 26.4357 107.537 26.4357C106.015 26.4357 105.345 25.7103 105.038 25.0764L102.763 25.6328C103.223 27.1471 104.766 28.3655 107.495 28.3655ZM107.516 21.9281C105.848 21.9281 104.968 20.6181 104.968 18.6249C104.968 16.6599 105.834 15.2161 107.516 15.2161C109.142 15.2161 110.035 16.5754 110.035 18.6249C110.035 20.6886 109.128 21.9281 107.516 21.9281Z" fill="#101828"/>
</svg>
