<svg width="156" height="34" viewBox="0 0 156 34" fill="none" xmlns="http://www.w3.org/2000/svg">
<path d="M11.0304 23.6786C17.1223 23.6786 22.0607 18.6951 22.0607 12.5476C22.0607 11.8509 21.9973 11.1691 21.8759 10.5079C21.2207 10.3854 20.5451 10.3214 19.8546 10.3214C13.7627 10.3214 8.82428 15.3049 8.82428 21.4524C8.82428 22.1491 8.88771 22.8308 9.00907 23.4921C9.66434 23.6146 10.3399 23.6786 11.0304 23.6786Z" fill="#175CD3"/>
<path fill-rule="evenodd" clip-rule="evenodd" d="M9.00909 23.4921C3.88251 22.534 0 17.9984 0 12.5476C0 6.40017 4.93847 1.41667 11.0304 1.41667C16.4319 1.41667 20.9266 5.33459 21.876 10.5079C21.2207 10.3854 20.5451 10.3214 19.8547 10.3214C13.7628 10.3214 8.8243 15.3049 8.8243 21.4524C8.8243 22.1491 8.88773 22.8309 9.00909 23.4921Z" fill="#1570EF"/>
<path fill-rule="evenodd" clip-rule="evenodd" d="M11.0303 23.6785C17.1222 23.6785 22.0607 18.695 22.0607 12.5476C22.0607 11.8509 21.9973 11.1691 21.8759 10.5079C27.0025 11.4659 30.885 16.0016 30.885 21.4523C30.885 27.5998 25.9465 32.5833 19.8546 32.5833C14.4531 32.5833 9.95845 28.6654 9.00903 23.4921C9.66431 23.6145 10.3399 23.6785 11.0303 23.6785Z" fill="#2E90FA"/>
<path d="M52.1031 20.4737C51.71 21.7562 51.0221 22.7148 50.0394 23.3495C49.0567 23.9709 47.9102 24.2817 46.5999 24.2817C45.3159 24.2817 44.2021 24.0106 43.2587 23.4685C42.3284 22.9264 41.6078 22.1529 41.0968 21.148C40.5989 20.1431 40.3499 18.9399 40.3499 17.5383C40.3499 16.1368 40.6054 14.9336 41.1164 13.9287C41.6274 12.9238 42.3481 12.1503 43.2784 11.6082C44.2087 11.0661 45.3028 10.795 46.5606 10.795C47.884 10.795 49.0174 11.0793 49.9608 11.6478C50.9173 12.2032 51.5724 13.0494 51.9262 14.1865L49.4694 15.2377C49.2467 14.4443 48.906 13.8824 48.4474 13.5518C47.9888 13.2081 47.3992 13.0362 46.6785 13.0362C45.6041 13.0362 44.7459 13.4262 44.1039 14.2063C43.4749 14.9732 43.1605 16.0839 43.1605 17.5383C43.1605 18.9796 43.4618 20.0902 44.0645 20.8703C44.6673 21.6504 45.5386 22.0405 46.6785 22.0405C47.3861 22.0405 47.9954 21.8488 48.5064 21.4653C49.0305 21.0819 49.3974 20.5001 49.607 19.72L52.1031 20.4737Z" fill="#101828"/>
<path d="M55.4957 12.7387C54.382 12.7387 53.8251 12.2561 53.8251 11.2908C53.8251 10.3124 54.382 9.82317 55.4957 9.82317C56.6094 9.82317 57.1663 10.3124 57.1663 11.2908C57.1663 12.2561 56.6094 12.7387 55.4957 12.7387ZM56.8322 14.1667V24.0833H54.1396V14.1667H56.8322Z" fill="#101828"/>
<path d="M59.6865 24.0833V14.1667H62.0253L62.2022 16.1103C62.4512 15.436 62.8246 14.9137 63.3225 14.5435C63.8335 14.1601 64.4755 13.9683 65.2486 13.9683C65.7072 13.9683 66.061 14.0411 66.3099 14.1865L65.9955 16.4673C65.8644 16.4277 65.7007 16.3946 65.5041 16.3682C65.3207 16.3285 65.0783 16.3087 64.7769 16.3087C64.3707 16.3087 63.9842 16.4078 63.6173 16.6062C63.2635 16.7913 62.9687 17.0822 62.7329 17.4788C62.497 17.8623 62.3791 18.3515 62.3791 18.9465V24.0833H59.6865Z" fill="#101828"/>
<path d="M72.2476 13.9683C73.5579 13.9683 74.5734 14.2526 75.294 14.8212C76.0278 15.3897 76.5126 16.0773 76.7484 16.8838L74.2327 17.7962C73.9706 16.5929 73.322 15.9913 72.2869 15.9913C71.5401 15.9913 70.957 16.2558 70.5377 16.7847C70.1315 17.3136 69.9284 18.1003 69.9284 19.1448C69.9284 20.2026 70.1381 20.9893 70.5574 21.505C70.9898 22.0074 71.5728 22.2587 72.3066 22.2587C73.4465 22.2587 74.1279 21.6703 74.3506 20.4935L76.7877 21.2868C76.565 22.1727 76.0671 22.8933 75.294 23.4487C74.534 24.004 73.5448 24.2817 72.3262 24.2817C71.3042 24.2817 70.4067 24.0767 69.6336 23.6668C68.8737 23.2569 68.284 22.6686 67.8648 21.9017C67.4455 21.1348 67.2358 20.2092 67.2358 19.125C67.2358 18.0408 67.4455 17.1152 67.8648 16.3483C68.2971 15.5814 68.8868 14.9931 69.6336 14.5832C70.3936 14.1733 71.2649 13.9683 72.2476 13.9683Z" fill="#101828"/>
<path d="M83.3611 13.9683C84.3438 13.9683 85.2151 14.1733 85.9751 14.5832C86.7351 14.9931 87.3247 15.5814 87.744 16.3483C88.1764 17.1152 88.3926 18.0408 88.3926 19.125C88.3926 20.2092 88.1764 21.1348 87.744 21.9017C87.3247 22.6686 86.7351 23.2569 85.9751 23.6668C85.2151 24.0767 84.3438 24.2817 83.3611 24.2817C82.3653 24.2817 81.4874 24.0767 80.7274 23.6668C79.9806 23.2569 79.391 22.6686 78.9586 21.9017C78.5393 21.1348 78.3296 20.2092 78.3296 19.125C78.3296 18.0408 78.5393 17.1152 78.9586 16.3483C79.391 15.5814 79.9806 14.9931 80.7274 14.5832C81.4874 14.1733 82.3653 13.9683 83.3611 13.9683ZM83.3611 15.9913C82.6273 15.9913 82.0508 16.2558 81.6315 16.7847C81.2254 17.3003 81.0223 18.0804 81.0223 19.125C81.0223 20.1696 81.2254 20.9563 81.6315 21.4852C82.0508 22.0008 82.6273 22.2587 83.3611 22.2587C84.0818 22.2587 84.6452 22.0008 85.0514 21.4852C85.4706 20.9563 85.6803 20.1696 85.6803 19.125C85.6803 18.0804 85.4706 17.3003 85.0514 16.7847C84.6452 16.2558 84.0818 15.9913 83.3611 15.9913Z" fill="#101828"/>
<path d="M95.1267 13.9683C96.1094 13.9683 96.9807 14.1733 97.7407 14.5832C98.5007 14.9931 99.0903 15.5814 99.5096 16.3483C99.942 17.1152 100.158 18.0408 100.158 19.125C100.158 20.2092 99.942 21.1348 99.5096 21.9017C99.0903 22.6686 98.5007 23.2569 97.7407 23.6668C96.9807 24.0767 96.1094 24.2817 95.1267 24.2817C94.1309 24.2817 93.253 24.0767 92.493 23.6668C91.7462 23.2569 91.1566 22.6686 90.7242 21.9017C90.3049 21.1348 90.0952 20.2092 90.0952 19.125C90.0952 18.0408 90.3049 17.1152 90.7242 16.3483C91.1566 15.5814 91.7462 14.9931 92.493 14.5832C93.253 14.1733 94.1309 13.9683 95.1267 13.9683ZM95.1267 15.9913C94.3929 15.9913 93.8164 16.2558 93.3971 16.7847C92.991 17.3003 92.7879 18.0804 92.7879 19.125C92.7879 20.1696 92.991 20.9563 93.3971 21.4852C93.8164 22.0008 94.3929 22.2587 95.1267 22.2587C95.8474 22.2587 96.4108 22.0008 96.817 21.4852C97.2362 20.9563 97.4459 20.1696 97.4459 19.125C97.4459 18.0804 97.2362 17.3003 96.817 16.7847C96.4108 16.2558 95.8474 15.9913 95.1267 15.9913Z" fill="#101828"/>
<path d="M105.064 9.82317V21.029C105.064 21.4918 105.143 21.8157 105.3 22.0008C105.458 22.1859 105.72 22.2785 106.086 22.2785C106.309 22.2785 106.493 22.2653 106.637 22.2388C106.781 22.2124 106.964 22.1595 107.187 22.0802L106.951 23.8652C106.729 23.9974 106.447 24.0966 106.106 24.1627C105.779 24.242 105.451 24.2817 105.123 24.2817C104.167 24.2817 103.466 24.0503 103.02 23.5875C102.588 23.1115 102.372 22.3578 102.372 21.3265V9.82317H105.064Z" fill="#101828"/>
<path d="M113.247 24.2817C111.701 24.2817 110.463 23.8321 109.533 22.933C108.602 22.0207 108.137 20.7513 108.137 19.125C108.137 18.0408 108.347 17.1152 108.766 16.3483C109.185 15.5814 109.768 14.9931 110.515 14.5832C111.275 14.1733 112.14 13.9683 113.11 13.9683C114.105 13.9683 114.951 14.1733 115.645 14.5832C116.339 14.9798 116.87 15.5286 117.237 16.2293C117.604 16.9169 117.787 17.7036 117.787 18.5895C117.787 18.8539 117.781 19.1052 117.768 19.3432C117.755 19.5812 117.735 19.7927 117.709 19.9778H110.771C110.876 20.7447 111.138 21.3199 111.557 21.7033C111.989 22.0736 112.546 22.2587 113.228 22.2587C113.804 22.2587 114.269 22.1463 114.623 21.9215C114.977 21.6967 115.252 21.386 115.448 20.9893L117.591 21.8223C117.276 22.6024 116.726 23.2107 115.94 23.647C115.154 24.0701 114.256 24.2817 113.247 24.2817ZM113.09 15.9715C111.819 15.9715 111.052 16.6789 110.79 18.0937H115.213C115.134 17.4061 114.911 16.8838 114.544 16.5268C114.191 16.1566 113.706 15.9715 113.09 15.9715Z" fill="#101828"/>
<path d="M124 24.2817C123.004 24.2817 122.094 24.1032 121.268 23.7462C120.456 23.3892 119.794 22.8867 119.283 22.2388L120.836 20.6522C121.15 21.1282 121.569 21.5182 122.094 21.8223C122.618 22.1264 123.24 22.2785 123.961 22.2785C124.472 22.2785 124.878 22.2058 125.179 22.0603C125.494 21.9017 125.651 21.6571 125.651 21.3265C125.651 21.1149 125.579 20.9364 125.435 20.791C125.291 20.6323 125.002 20.5067 124.57 20.4142L122.84 20.0572C121.7 19.8192 120.888 19.4622 120.403 18.9862C119.932 18.4969 119.696 17.8689 119.696 17.102C119.696 16.5599 119.853 16.0508 120.167 15.5748C120.495 15.0988 120.98 14.7154 121.622 14.4245C122.264 14.1204 123.063 13.9683 124.02 13.9683C126.011 13.9683 127.439 14.5832 128.304 15.8128L126.693 17.3995C126.404 16.9367 126.024 16.5863 125.553 16.3483C125.094 16.0971 124.609 15.9715 124.098 15.9715C122.945 15.9715 122.369 16.2954 122.369 16.9433C122.369 17.1549 122.46 17.34 122.644 17.4987C122.827 17.6441 123.161 17.7697 123.646 17.8755L125.651 18.292C126.621 18.4903 127.315 18.8275 127.734 19.3035C128.154 19.7663 128.363 20.3282 128.363 20.9893C128.363 21.9413 127.983 22.7281 127.223 23.3495C126.476 23.9709 125.402 24.2817 124 24.2817Z" fill="#101828"/>
</svg>
