<svg width="156" height="34" viewBox="0 0 156 34" fill="none" xmlns="http://www.w3.org/2000/svg">
<path d="M24.282 17C21.787 19.813 18.1612 21.5833 14.1258 21.5833C10.0903 21.5833 6.46451 19.813 3.96954 17C6.46451 14.187 10.0903 12.4167 14.1258 12.4167C18.1612 12.4167 21.787 14.187 24.282 17Z" fill="white"/>
<path fill-rule="evenodd" clip-rule="evenodd" d="M0.5 26.1667C0.5 18.5727 6.60045 12.4167 14.1257 12.4167C10.0903 12.4167 6.46454 14.187 3.96957 17C6.46454 19.813 10.0903 21.5833 14.1258 21.5833C18.1613 21.5833 21.787 19.813 24.282 17C26.4396 19.4326 27.7515 22.645 27.7515 26.1667V31.3611C27.7515 32.0361 27.2092 32.5833 26.5403 32.5833H1.71118C1.04226 32.5833 0.5 32.0361 0.5 31.3611V26.1667ZM24.282 17C24.282 17 24.282 17 24.282 17V17Z" fill="#7CD4FD"/>
<path fill-rule="evenodd" clip-rule="evenodd" d="M9.01489 20.5833C7.06932 19.7884 5.34709 18.5531 3.96957 17C6.46453 14.187 10.0903 12.4167 14.1258 12.4167C18.1613 12.4167 21.787 14.187 24.282 17C24.282 17 24.282 17 24.282 17C26.4395 14.5673 27.7515 11.3549 27.7515 7.83332V2.63888C27.7515 1.96387 27.2092 1.41666 26.5403 1.41666L1.71118 1.41666C1.04226 1.41666 0.500001 1.96386 0.5 2.63888L0.5 7.83332C0.499999 13.6034 4.02198 18.5433 9.01489 20.5833Z" fill="#0BA5EC"/>
<path d="M49.0344 10.2397V24.0833H46.2828V18.1928H40.4062V24.0833H37.6547V10.2397H40.4062V15.9318H46.2828V10.2397H49.0344Z" fill="#101828"/>
<path d="M56.5776 24.2618C55.5294 24.2618 54.586 24.0305 53.7474 23.5677C52.9088 23.0917 52.2471 22.424 51.7623 21.5645C51.2906 20.7051 51.0548 19.7134 51.0548 18.5895C51.0548 17.4656 51.2972 16.474 51.782 15.6145C52.2799 14.7551 52.9547 14.094 53.8063 13.6312C54.658 13.1552 55.608 12.9172 56.6562 12.9172C57.7044 12.9172 58.6544 13.1552 59.506 13.6312C60.3577 14.094 61.026 14.7551 61.5108 15.6145C62.0087 16.474 62.2576 17.4656 62.2576 18.5895C62.2576 19.7134 62.0021 20.7051 61.4911 21.5645C60.9932 22.424 60.3119 23.0917 59.4471 23.5677C58.5954 24.0305 57.6389 24.2618 56.5776 24.2618ZM56.5776 21.8422C57.0755 21.8422 57.5406 21.7232 57.973 21.4852C58.4185 21.234 58.7723 20.8637 59.0343 20.3745C59.2964 19.8853 59.4274 19.2903 59.4274 18.5895C59.4274 17.545 59.1523 16.745 58.6019 16.1897C58.0647 15.6211 57.403 15.3368 56.6169 15.3368C55.8307 15.3368 55.169 15.6211 54.6318 16.1897C54.1077 16.745 53.8457 17.545 53.8457 18.5895C53.8457 19.6341 54.1012 20.4406 54.6122 21.0092C55.1363 21.5645 55.7914 21.8422 56.5776 21.8422Z" fill="#101828"/>
<path d="M74.5551 13.0957V24.0833H71.7839V22.695C71.4301 23.171 70.9649 23.5478 70.3884 23.8255C69.825 24.09 69.2092 24.2222 68.5409 24.2222C67.6893 24.2222 66.9359 24.0437 66.2807 23.6867C65.6256 23.3165 65.108 22.781 64.728 22.0802C64.3612 21.3662 64.1777 20.52 64.1777 19.5415V13.0957H66.9293V19.1448C66.9293 20.0175 67.1455 20.6918 67.5779 21.1678C68.0103 21.6306 68.5999 21.862 69.3468 21.862C70.1067 21.862 70.7029 21.6306 71.1353 21.1678C71.5677 20.6918 71.7839 20.0175 71.7839 19.1448V13.0957H74.5551Z" fill="#101828"/>
<path d="M80.0215 14.8013C80.3753 14.2196 80.8339 13.7634 81.3973 13.4328C81.9739 13.1023 82.629 12.937 83.3627 12.937V15.8525H82.6355C81.7708 15.8525 81.1156 16.0575 80.6701 16.4673C80.2377 16.8772 80.0215 17.5912 80.0215 18.6093V24.0833H77.27V13.0957H80.0215V14.8013Z" fill="#101828"/>
<path d="M89.481 12.9172C90.2934 12.9172 91.0075 13.0825 91.6233 13.413C92.2391 13.7303 92.7239 14.1468 93.0777 14.6625V13.0957H95.8489V24.1627C95.8489 25.1808 95.6458 26.0865 95.2397 26.8798C94.8335 27.6864 94.2242 28.3211 93.4118 28.7838C92.5995 29.2598 91.6168 29.4978 90.4637 29.4978C88.9176 29.4978 87.6466 29.1342 86.6508 28.407C85.6681 27.6798 85.1112 26.6881 84.9802 25.432H87.7121C87.8563 25.9345 88.1642 26.3311 88.6359 26.622C89.1207 26.9261 89.7038 27.0782 90.3851 27.0782C91.1844 27.0782 91.8329 26.8336 92.3309 26.3443C92.8288 25.8683 93.0777 25.1411 93.0777 24.1627V22.457C92.7239 22.9727 92.2326 23.4024 91.6036 23.7462C90.9878 24.09 90.2803 24.2618 89.481 24.2618C88.5638 24.2618 87.7252 24.0238 86.9653 23.5478C86.2053 23.0718 85.6026 22.4041 85.1571 21.5447C84.7247 20.672 84.5085 19.6737 84.5085 18.5498C84.5085 17.4392 84.7247 16.4541 85.1571 15.5947C85.6026 14.7352 86.1988 14.0741 86.9456 13.6113C87.7056 13.1486 88.5507 12.9172 89.481 12.9172ZM93.0777 18.5895C93.0777 17.9152 92.9467 17.34 92.6846 16.864C92.4226 16.3748 92.0688 16.0046 91.6233 15.7533C91.1778 15.4889 90.6996 15.3567 90.1886 15.3567C89.6775 15.3567 89.2058 15.4823 88.7735 15.7335C88.3411 15.9847 87.9873 16.355 87.7121 16.8442C87.4501 17.3202 87.3191 17.8887 87.3191 18.5498C87.3191 19.211 87.4501 19.7927 87.7121 20.2952C87.9873 20.7844 88.3411 21.1612 88.7735 21.4257C89.219 21.6901 89.6907 21.8223 90.1886 21.8223C90.6996 21.8223 91.1778 21.6967 91.6233 21.4455C92.0688 21.1811 92.4226 20.8108 92.6846 20.3348C92.9467 19.8456 93.0777 19.2638 93.0777 18.5895Z" fill="#101828"/>
<path d="M101.288 9.40668V24.0833H98.5363V9.40668H101.288Z" fill="#101828"/>
<path d="M103.299 18.5498C103.299 17.4392 103.515 16.4541 103.948 15.5947C104.393 14.7352 104.989 14.0741 105.736 13.6113C106.496 13.1486 107.341 12.9172 108.271 12.9172C109.084 12.9172 109.791 13.0825 110.394 13.413C111.01 13.7436 111.501 14.1601 111.868 14.6625V13.0957H114.639V24.0833H111.868V22.4768C111.514 22.9925 111.023 23.4222 110.394 23.766C109.778 24.0966 109.064 24.2618 108.252 24.2618C107.335 24.2618 106.496 24.0238 105.736 23.5478C104.989 23.0718 104.393 22.4041 103.948 21.5447C103.515 20.672 103.299 19.6737 103.299 18.5498ZM111.868 18.5895C111.868 17.9152 111.737 17.34 111.475 16.864C111.213 16.3748 110.859 16.0046 110.414 15.7533C109.968 15.4889 109.49 15.3567 108.979 15.3567C108.468 15.3567 107.996 15.4823 107.564 15.7335C107.131 15.9847 106.778 16.355 106.503 16.8442C106.24 17.3202 106.109 17.8887 106.109 18.5498C106.109 19.211 106.24 19.7927 106.503 20.2952C106.778 20.7844 107.131 21.1612 107.564 21.4257C108.009 21.6901 108.481 21.8223 108.979 21.8223C109.49 21.8223 109.968 21.6967 110.414 21.4455C110.859 21.1811 111.213 20.8108 111.475 20.3348C111.737 19.8456 111.868 19.2638 111.868 18.5895Z" fill="#101828"/>
<path d="M121.493 24.2618C120.602 24.2618 119.803 24.1032 119.096 23.7858C118.388 23.4553 117.825 23.0123 117.405 22.457C116.999 21.9017 116.776 21.2868 116.737 20.6125H119.508C119.561 21.0356 119.764 21.386 120.118 21.6637C120.484 21.9413 120.937 22.0802 121.474 22.0802C121.998 22.0802 122.404 21.9744 122.692 21.7628C122.994 21.5513 123.144 21.2802 123.144 20.9497C123.144 20.5927 122.961 20.3282 122.594 20.1563C122.24 19.9712 121.67 19.7729 120.884 19.5613C120.072 19.363 119.404 19.1581 118.879 18.9465C118.368 18.735 117.923 18.411 117.543 17.9747C117.176 17.5383 116.993 16.95 116.993 16.2095C116.993 15.6013 117.163 15.046 117.504 14.5435C117.857 14.0411 118.355 13.6444 118.997 13.3535C119.652 13.0626 120.419 12.9172 121.297 12.9172C122.594 12.9172 123.629 13.2477 124.402 13.9088C125.175 14.5567 125.601 15.436 125.68 16.5467H123.046C123.007 16.1103 122.823 15.7666 122.496 15.5153C122.181 15.2509 121.755 15.1187 121.218 15.1187C120.72 15.1187 120.334 15.2112 120.059 15.3963C119.797 15.5815 119.666 15.8393 119.666 16.1698C119.666 16.5401 119.849 16.8243 120.216 17.0227C120.583 17.2078 121.153 17.3995 121.926 17.5978C122.712 17.7962 123.361 18.0011 123.872 18.2127C124.383 18.4242 124.821 18.7548 125.188 19.2043C125.568 19.6407 125.765 20.2225 125.778 20.9497C125.778 21.5843 125.601 22.1529 125.247 22.6553C124.907 23.1578 124.409 23.5545 123.754 23.8453C123.112 24.123 122.358 24.2618 121.493 24.2618Z" fill="#101828"/>
<path d="M132.203 24.2618C131.312 24.2618 130.513 24.1032 129.806 23.7858C129.098 23.4553 128.535 23.0123 128.115 22.457C127.709 21.9017 127.486 21.2868 127.447 20.6125H130.218C130.271 21.0356 130.474 21.386 130.828 21.6637C131.194 21.9413 131.646 22.0802 132.184 22.0802C132.708 22.0802 133.114 21.9744 133.402 21.7628C133.704 21.5513 133.854 21.2802 133.854 20.9497C133.854 20.5927 133.671 20.3282 133.304 20.1563C132.95 19.9712 132.38 19.7729 131.594 19.5613C130.782 19.363 130.113 19.1581 129.589 18.9465C129.078 18.735 128.633 18.411 128.253 17.9747C127.886 17.5383 127.703 16.95 127.703 16.2095C127.703 15.6013 127.873 15.046 128.214 14.5435C128.567 14.0411 129.065 13.6444 129.707 13.3535C130.362 13.0626 131.129 12.9172 132.007 12.9172C133.304 12.9172 134.339 13.2477 135.112 13.9088C135.885 14.5567 136.311 15.436 136.39 16.5467H133.756C133.717 16.1103 133.533 15.7666 133.206 15.5153C132.891 15.2509 132.465 15.1187 131.928 15.1187C131.43 15.1187 131.044 15.2112 130.769 15.3963C130.507 15.5815 130.376 15.8393 130.376 16.1698C130.376 16.5401 130.559 16.8243 130.926 17.0227C131.293 17.2078 131.863 17.3995 132.636 17.5978C133.422 17.7962 134.07 18.0011 134.581 18.2127C135.092 18.4242 135.531 18.7548 135.898 19.2043C136.278 19.6407 136.475 20.2225 136.488 20.9497C136.488 21.5843 136.311 22.1529 135.957 22.6553C135.617 23.1578 135.119 23.5545 134.464 23.8453C133.822 24.123 133.068 24.2618 132.203 24.2618Z" fill="#101828"/>
</svg>
