<svg width="156" height="34" viewBox="0 0 156 34" fill="none" xmlns="http://www.w3.org/2000/svg">
<path fill-rule="evenodd" clip-rule="evenodd" d="M15.4425 25.8305C20.2754 25.8305 24.1933 21.877 24.1933 17C24.1933 12.123 20.2754 8.16943 15.4425 8.16943C10.6096 8.16943 6.69176 12.123 6.69176 17C6.69176 21.877 10.6096 25.8305 15.4425 25.8305ZM15.4425 32.5833C23.9712 32.5833 30.885 25.6064 30.885 17C30.885 8.39355 23.9712 1.41666 15.4425 1.41666C6.91385 1.41666 0 8.39355 0 17C0 25.6064 6.91385 32.5833 15.4425 32.5833Z" fill="#6938EF"/>
<path d="M15.6191 17.3412C17.2273 15.7183 19.8347 15.7183 21.4429 17.3412L29.4505 25.4218C31.0587 27.0447 31.0587 29.6758 29.4505 31.2987C27.8423 32.9215 25.235 32.9215 23.6268 31.2987L15.6191 23.218C14.011 21.5952 14.011 18.964 15.6191 17.3412Z" fill="#F670C7"/>
<path d="M17.8677 25.4871L22.9534 30.6192C25.3928 29.2463 27.4251 27.2254 28.8217 24.7872L23.7776 19.6972C22.8916 22.4876 20.6677 24.6738 17.8677 25.4871Z" fill="#6519BA"/>
<path d="M55.8177 25.5708C55.3722 26.1262 54.8285 26.5493 54.1864 26.8402C53.5575 27.131 52.8631 27.2765 52.1031 27.2765C51.0811 27.2765 50.1573 27.0517 49.3319 26.6022C48.5064 26.1658 47.563 25.3857 46.5017 24.2618C45.2569 24.1032 44.1432 23.6999 43.1605 23.052C42.1909 22.4041 41.4309 21.5711 40.8806 20.553C40.3434 19.5217 40.0748 18.3845 40.0748 17.1417C40.0748 15.7798 40.3958 14.5567 41.0378 13.4725C41.693 12.375 42.5905 11.5156 43.7304 10.8942C44.8835 10.2727 46.1741 9.96199 47.6023 9.96199C49.0305 9.96199 50.3146 10.2727 51.4545 10.8942C52.5944 11.5156 53.492 12.375 54.1471 13.4725C54.8023 14.5567 55.1298 15.7798 55.1298 17.1417C55.1298 18.7548 54.6778 20.1695 53.7737 21.386C52.8827 22.6024 51.6969 23.4487 50.2163 23.9247C50.5439 24.2684 50.8583 24.513 51.1597 24.6585C51.4742 24.8172 51.8083 24.8965 52.1621 24.8965C53.0137 24.8965 53.7606 24.5527 54.4026 23.8652L55.8177 25.5708ZM43.298 17.1417C43.298 18.0011 43.4815 18.768 43.8484 19.4423C44.2283 20.1167 44.7459 20.6455 45.401 21.029C46.0562 21.3992 46.7899 21.5843 47.6023 21.5843C48.4147 21.5843 49.1484 21.3992 49.8036 21.029C50.4587 20.6455 50.9697 20.1167 51.3366 19.4423C51.7166 18.768 51.9066 18.0011 51.9066 17.1417C51.9066 16.2822 51.7166 15.5153 51.3366 14.841C50.9697 14.1667 50.4587 13.6444 49.8036 13.2742C49.1484 12.8907 48.4147 12.699 47.6023 12.699C46.7899 12.699 46.0562 12.8907 45.401 13.2742C44.7459 13.6444 44.2283 14.1667 43.8484 14.841C43.4815 15.5153 43.298 16.2822 43.298 17.1417Z" fill="#101828"/>
<path d="M67.9591 13.413V24.0833H65.0502V22.814C64.6441 23.2768 64.1593 23.6338 63.5958 23.885C63.0324 24.123 62.4231 24.242 61.768 24.242C60.3791 24.242 59.2785 23.8387 58.4661 23.0322C57.6537 22.2256 57.2476 21.029 57.2476 19.4423V13.413H60.3136V18.9862C60.3136 20.705 61.0277 21.5645 62.4559 21.5645C63.1897 21.5645 63.7793 21.3265 64.2248 20.8505C64.6703 20.3613 64.893 19.6407 64.893 18.6887V13.413H67.9591Z" fill="#101828"/>
<path d="M75.831 24.242C74.7173 24.242 73.7149 24.0106 72.8239 23.5478C71.946 23.0718 71.2581 22.4173 70.7602 21.5843C70.2623 20.7513 70.0134 19.8059 70.0134 18.7482C70.0134 17.6904 70.2623 16.745 70.7602 15.912C71.2581 15.079 71.946 14.4311 72.8239 13.9683C73.7149 13.4923 74.7173 13.2543 75.831 13.2543C76.9447 13.2543 77.9405 13.4923 78.8184 13.9683C79.6963 14.4311 80.3842 15.079 80.8821 15.912C81.38 16.745 81.629 17.6904 81.629 18.7482C81.629 19.8059 81.38 20.7513 80.8821 21.5843C80.3842 22.4173 79.6963 23.0718 78.8184 23.5478C77.9405 24.0106 76.9447 24.242 75.831 24.242ZM75.831 21.7033C76.6172 21.7033 77.2592 21.4389 77.7571 20.91C78.2681 20.3679 78.5236 19.6473 78.5236 18.7482C78.5236 17.849 78.2681 17.135 77.7571 16.6062C77.2592 16.064 76.6172 15.793 75.831 15.793C75.0448 15.793 74.3962 16.064 73.8852 16.6062C73.3742 17.135 73.1187 17.849 73.1187 18.7482C73.1187 19.6473 73.3742 20.3679 73.8852 20.91C74.3962 21.4389 75.0448 21.7033 75.831 21.7033Z" fill="#101828"/>
<path d="M90.4983 23.5677C90.197 23.7924 89.8235 23.9643 89.378 24.0833C88.9457 24.1891 88.4871 24.242 88.0023 24.242C86.7444 24.242 85.7682 23.918 85.0738 23.2702C84.3924 22.6223 84.0518 21.6703 84.0518 20.4142V16.031H82.4205V13.651H84.0518V11.0528H87.1178V13.651H89.7515V16.031H87.1178V20.3745C87.1178 20.824 87.2292 21.1744 87.4519 21.4257C87.6878 21.6637 88.0154 21.7827 88.4347 21.7827C88.9194 21.7827 89.3322 21.6504 89.6729 21.386L90.4983 23.5677Z" fill="#101828"/>
<path d="M92.2194 13.413H95.2855V24.0833H92.2194V13.413ZM93.7525 11.9255C93.189 11.9255 92.7305 11.7602 92.3767 11.4297C92.0229 11.0991 91.846 10.6892 91.846 10.2C91.846 9.71077 92.0229 9.30088 92.3767 8.97032C92.7305 8.63977 93.189 8.47449 93.7525 8.47449C94.3159 8.47449 94.7745 8.63315 95.1283 8.95049C95.482 9.26782 95.6589 9.66449 95.6589 10.1405C95.6589 10.6562 95.482 11.0859 95.1283 11.4297C94.7745 11.7602 94.3159 11.9255 93.7525 11.9255Z" fill="#101828"/>
<path d="M108.489 18.7878C108.489 18.8275 108.469 19.1052 108.43 19.6208H100.431C100.575 20.2819 100.915 20.8042 101.453 21.1877C101.99 21.5711 102.658 21.7628 103.457 21.7628C104.008 21.7628 104.492 21.6835 104.912 21.5248C105.344 21.3529 105.744 21.0885 106.111 20.7315L107.742 22.5165C106.746 23.6668 105.292 24.242 103.379 24.242C102.186 24.242 101.132 24.0106 100.214 23.5478C99.2972 23.0718 98.5896 22.4173 98.0917 21.5843C97.5938 20.7513 97.3449 19.8059 97.3449 18.7482C97.3449 17.7036 97.5873 16.7648 98.0721 15.9318C98.57 15.0856 99.2448 14.4311 100.096 13.9683C100.961 13.4923 101.924 13.2543 102.986 13.2543C104.021 13.2543 104.958 13.4791 105.796 13.9287C106.635 14.3782 107.29 15.0261 107.762 15.8723C108.246 16.7053 108.489 17.6772 108.489 18.7878ZM103.005 15.5947C102.311 15.5947 101.728 15.793 101.256 16.1897C100.784 16.5863 100.496 17.1284 100.391 17.816H105.6C105.495 17.1417 105.207 16.6062 104.735 16.2095C104.263 15.7996 103.687 15.5947 103.005 15.5947Z" fill="#101828"/>
<path d="M116.957 13.2543C118.267 13.2543 119.322 13.651 120.121 14.4443C120.934 15.2377 121.34 16.4144 121.34 17.9747V24.0833H118.274V18.4507C118.274 17.6044 118.09 16.9764 117.723 16.5665C117.357 16.1434 116.826 15.9318 116.131 15.9318C115.358 15.9318 114.743 16.1764 114.284 16.6657C113.825 17.1417 113.596 17.8557 113.596 18.8077V24.0833H110.53V13.413H113.458V14.6625C113.865 14.2129 114.369 13.8692 114.972 13.6312C115.575 13.3799 116.236 13.2543 116.957 13.2543Z" fill="#101828"/>
<path d="M130.939 23.5677C130.638 23.7924 130.264 23.9643 129.819 24.0833C129.386 24.1891 128.928 24.242 128.443 24.242C127.185 24.242 126.209 23.918 125.514 23.2702C124.833 22.6223 124.492 21.6703 124.492 20.4142V16.031H122.861V13.651H124.492V11.0528H127.558V13.651H130.192V16.031H127.558V20.3745C127.558 20.824 127.67 21.1744 127.893 21.4257C128.128 21.6637 128.456 21.7827 128.875 21.7827C129.36 21.7827 129.773 21.6504 130.114 21.386L130.939 23.5677Z" fill="#101828"/>
</svg>
