<svg width="156" height="34" viewBox="0 0 156 34" fill="none" xmlns="http://www.w3.org/2000/svg">
<rect x="0.5" y="13.6" width="6.73855" height="6.79999" fill="#039855"/>
<rect x="20.7157" y="20.4" width="6.73855" height="6.79999" transform="rotate(180 20.7157 20.4)" fill="#027A48"/>
<path d="M7.23853 13.6L13.9771 6.79999V13.6L7.23853 20.4V13.6Z" fill="#A6F4C5"/>
<path d="M13.9771 20.4L7.23851 27.2L7.23851 20.4L13.9771 13.6L13.9771 20.4Z" fill="#6CE9A6"/>
<path d="M0.5 13.6L13.9771 0V6.79999L7.23855 13.6H0.5Z" fill="#32D583"/>
<path d="M20.7157 20.4L7.2386 34L7.2386 27.2L13.9771 20.4L20.7157 20.4Z" fill="#12B76A"/>
<path d="M35.3917 24.2817C34.3304 24.2817 33.3018 24.1296 32.306 23.8255C31.3233 23.5214 30.5437 23.1181 29.9672 22.6157L30.8516 20.6125C31.415 21.0621 32.1029 21.4323 32.9153 21.7232C33.7408 22.0008 34.5662 22.1397 35.3917 22.1397C36.4137 22.1397 37.1737 21.9744 37.6716 21.6438C38.1826 21.3133 38.4381 20.877 38.4381 20.3348C38.4381 19.9382 38.294 19.6142 38.0057 19.363C37.7305 19.0986 37.3768 18.8936 36.9444 18.7482C36.512 18.6027 35.9224 18.4374 35.1755 18.2523C34.1273 18.0011 33.2756 17.7499 32.6205 17.4987C31.9784 17.2474 31.4216 16.8574 30.9499 16.3285C30.4913 15.7864 30.262 15.0592 30.262 14.1468C30.262 13.3799 30.4651 12.6858 30.8713 12.0643C31.2905 11.4297 31.9129 10.9272 32.7384 10.557C33.577 10.1868 34.599 10.0017 35.8044 10.0017C36.643 10.0017 37.4685 10.1074 38.2809 10.319C39.0932 10.5306 39.7942 10.8347 40.3838 11.2313L39.578 13.2345C38.9753 12.8775 38.3464 12.6064 37.6912 12.4213C37.0361 12.2362 36.4006 12.1437 35.7848 12.1437C34.7759 12.1437 34.0225 12.3156 33.5246 12.6593C33.0398 13.0031 32.7974 13.4593 32.7974 14.0278C32.7974 14.4245 32.9349 14.7484 33.2101 14.9997C33.4984 15.2509 33.8587 15.4492 34.2911 15.5947C34.7235 15.7401 35.3131 15.9054 36.0599 16.0905C37.082 16.3285 37.9205 16.5797 38.5757 16.8442C39.2308 17.0954 39.7877 17.4854 40.2463 18.0143C40.718 18.5432 40.9538 19.2572 40.9538 20.1563C40.9538 20.9232 40.7442 21.6174 40.3249 22.2388C39.9187 22.8603 39.2963 23.3561 38.4577 23.7263C37.6192 24.0966 36.5972 24.2817 35.3917 24.2817Z" fill="#101828"/>
<path d="M43.2515 13.4923H45.7083V24.0833H43.2515V13.4923ZM44.4897 11.747C44.0442 11.747 43.6708 11.6082 43.3694 11.3305C43.0681 11.0396 42.9174 10.6826 42.9174 10.2595C42.9174 9.83639 43.0681 9.486 43.3694 9.20834C43.6708 8.91745 44.0442 8.772 44.4897 8.772C44.9352 8.772 45.3086 8.91084 45.61 9.1885C45.9114 9.45295 46.062 9.79011 46.062 10.2C46.062 10.6363 45.9114 11.0066 45.61 11.3107C45.3217 11.6016 44.9483 11.747 44.4897 11.747Z" fill="#101828"/>
<path d="M52.1757 24.2222C51.324 24.2222 50.492 24.1098 49.6796 23.885C48.8673 23.6602 48.2187 23.376 47.7339 23.0322L48.6773 21.148C49.149 21.4653 49.7124 21.7232 50.3675 21.9215C51.0358 22.1066 51.6909 22.1992 52.3329 22.1992C53.8004 22.1992 54.5342 21.8091 54.5342 21.029C54.5342 20.6588 54.3442 20.401 53.9642 20.2555C53.5974 20.1101 53.0012 19.9712 52.1757 19.839C51.3109 19.7068 50.6034 19.5547 50.0531 19.3828C49.5158 19.2109 49.0441 18.9134 48.638 18.4903C48.2449 18.054 48.0483 17.4524 48.0483 16.6855C48.0483 15.6806 48.4611 14.8807 49.2865 14.2857C50.1251 13.6774 51.252 13.3733 52.6671 13.3733C53.3877 13.3733 54.1084 13.4593 54.829 13.6312C55.5497 13.7898 56.1393 14.008 56.5979 14.2857L55.6545 16.1698C54.7635 15.6409 53.7611 15.3765 52.6474 15.3765C51.9268 15.3765 51.3764 15.4889 50.9965 15.7137C50.6296 15.9252 50.4461 16.2095 50.4461 16.5665C50.4461 16.9632 50.6427 17.2474 51.0358 17.4193C51.4419 17.578 52.0643 17.7301 52.9029 17.8755C53.7415 18.0077 54.4294 18.1598 54.9666 18.3317C55.5038 18.5036 55.9624 18.7944 56.3424 19.2043C56.7355 19.6142 56.932 20.196 56.932 20.9497C56.932 21.9413 56.5062 22.7347 55.6545 23.3297C54.8028 23.9247 53.6432 24.2222 52.1757 24.2222Z" fill="#101828"/>
<path d="M68.6829 13.4923L63.7693 24.9362C63.3107 26.0865 62.7539 26.8931 62.0987 27.3558C61.4436 27.8318 60.6509 28.0698 59.7206 28.0698C59.1965 28.0698 58.6789 27.9839 58.1679 27.812C57.6569 27.6401 57.2376 27.4021 56.91 27.098L57.8927 25.2733C58.1286 25.4981 58.4038 25.6766 58.7182 25.8088C59.0458 25.9411 59.3734 26.0072 59.7009 26.0072C60.1333 26.0072 60.4871 25.8948 60.7622 25.67C61.0505 25.4452 61.3126 25.0684 61.5484 24.5395L61.7253 24.123L57.1459 13.4923H59.7009L63.0028 21.3265L66.3244 13.4923H68.6829Z" fill="#101828"/>
<path d="M76.036 13.3733C77.058 13.3733 77.9686 13.5981 78.7679 14.0477C79.5802 14.4972 80.2157 15.1319 80.6743 15.9517C81.1329 16.7714 81.3622 17.7168 81.3622 18.7878C81.3622 19.8588 81.1329 20.8108 80.6743 21.6438C80.2157 22.4636 79.5802 23.0983 78.7679 23.5478C77.9686 23.9974 77.058 24.2222 76.036 24.2222C74.6209 24.2222 73.5006 23.7462 72.6751 22.7942V27.931H70.2183V13.4923H72.5572V14.8807C72.9634 14.3782 73.4613 14.0014 74.0509 13.7502C74.6536 13.4989 75.3153 13.3733 76.036 13.3733ZM75.7608 22.1C76.6649 22.1 77.4052 21.7959 77.9817 21.1877C78.5713 20.5794 78.8661 19.7795 78.8661 18.7878C78.8661 17.7962 78.5713 16.9962 77.9817 16.388C77.4052 15.7798 76.6649 15.4757 75.7608 15.4757C75.1712 15.4757 74.6405 15.6145 74.1688 15.8922C73.6971 16.1566 73.3237 16.5401 73.0485 17.0425C72.7734 17.5449 72.6358 18.1267 72.6358 18.7878C72.6358 19.4489 72.7734 20.0307 73.0485 20.5332C73.3237 21.0356 73.6971 21.4257 74.1688 21.7033C74.6405 21.9678 75.1712 22.1 75.7608 22.1Z" fill="#101828"/>
<path d="M89.6474 13.3733C90.9707 13.3733 92.0321 13.7634 92.8313 14.5435C93.6306 15.3236 94.0302 16.4806 94.0302 18.0143V24.0833H91.5735V18.3317C91.5735 17.4061 91.3573 16.7119 90.9249 16.2492C90.4925 15.7732 89.8767 15.5352 89.0774 15.5352C88.1733 15.5352 87.4592 15.8128 86.9351 16.3682C86.411 16.9103 86.1489 17.697 86.1489 18.7283V24.0833H83.6922V9.367H86.1489V14.722C86.5551 14.2857 87.053 13.9551 87.6426 13.7303C88.2454 13.4923 88.9136 13.3733 89.6474 13.3733Z" fill="#101828"/>
<path d="M107.308 13.4923V24.0833H104.969V22.7347C104.576 23.2107 104.085 23.5809 103.495 23.8453C102.905 24.0966 102.27 24.2222 101.589 24.2222C100.187 24.2222 99.0794 23.8321 98.2671 23.052C97.4678 22.2587 97.0682 21.0885 97.0682 19.5415V13.4923H99.5249V19.2043C99.5249 20.1563 99.7346 20.8703 100.154 21.3463C100.586 21.8091 101.196 22.0405 101.982 22.0405C102.86 22.0405 103.554 21.7695 104.065 21.2273C104.589 20.672 104.851 19.8787 104.851 18.8473V13.4923H107.308Z" fill="#101828"/>
<path d="M113.768 24.2222C112.916 24.2222 112.084 24.1098 111.271 23.885C110.459 23.6602 109.811 23.376 109.326 23.0322L110.269 21.148C110.741 21.4653 111.304 21.7232 111.959 21.9215C112.628 22.1066 113.283 22.1992 113.925 22.1992C115.392 22.1992 116.126 21.8091 116.126 21.029C116.126 20.6588 115.936 20.401 115.556 20.2555C115.189 20.1101 114.593 19.9712 113.768 19.839C112.903 19.7068 112.195 19.5547 111.645 19.3828C111.108 19.2109 110.636 18.9134 110.23 18.4903C109.837 18.054 109.64 17.4524 109.64 16.6855C109.64 15.6806 110.053 14.8807 110.878 14.2857C111.717 13.6774 112.844 13.3733 114.259 13.3733C114.98 13.3733 115.7 13.4593 116.421 13.6312C117.142 13.7898 117.731 14.008 118.19 14.2857L117.246 16.1698C116.355 15.6409 115.353 15.3765 114.239 15.3765C113.519 15.3765 112.968 15.4889 112.588 15.7137C112.221 15.9252 112.038 16.2095 112.038 16.5665C112.038 16.9632 112.235 17.2474 112.628 17.4193C113.034 17.578 113.656 17.7301 114.495 17.8755C115.333 18.0077 116.021 18.1598 116.558 18.3317C117.096 18.5036 117.554 18.7944 117.934 19.2043C118.327 19.6142 118.524 20.196 118.524 20.9497C118.524 21.9413 118.098 22.7347 117.246 23.3297C116.395 23.9247 115.235 24.2222 113.768 24.2222Z" fill="#101828"/>
</svg>
